<svg width="20" height="20" viewBox="0 0 20 20" fill="none" xmlns="http://www.w3.org/2000/svg">
<path d="M1.33337 14H18.6667M3.33337 14V7.33329C3.33337 5.56518 4.03575 3.86949 5.286 2.61925C6.53624 1.369 8.23193 0.666626 10 0.666626C11.7682 0.666626 13.4638 1.369 14.7141 2.61925C15.9643 3.86949 16.6667 5.56518 16.6667 7.33329V14M7.33337 16V16.6666C7.33337 17.3739 7.61433 18.0521 8.11442 18.5522C8.61452 19.0523 9.2928 19.3333 10 19.3333C10.7073 19.3333 11.3856 19.0523 11.8857 18.5522C12.3858 18.0521 12.6667 17.3739 12.6667 16.6666V16" stroke="#484848" stroke-width="1.26667"/>
</svg>
