<svg width="8" height="8" viewBox="0 0 8 8" fill="none" xmlns="http://www.w3.org/2000/svg">
<g clip-path="url(#clip0_7_1073)">
<path d="M0.266667 5.06641L0.0778667 4.87761L0 4.95601V5.06641H0.266667ZM5.06667 0.266411L5.25547 0.0776109C5.2307 0.0527772 5.20127 0.0330744 5.16887 0.0196309C5.13647 0.00618747 5.10174 -0.000732422 5.06667 -0.000732422C5.03159 -0.000732422 4.99686 0.00618747 4.96446 0.0196309C4.93207 0.0330744 4.90264 0.0527772 4.87787 0.0776109L5.06667 0.266411ZM7.73333 2.93308L7.92213 3.12188C7.94697 3.09711 7.96667 3.06768 7.98011 3.03528C7.99356 3.00288 8.00048 2.96815 8.00048 2.93308C8.00048 2.898 7.99356 2.86327 7.98011 2.83087C7.96667 2.79848 7.94697 2.76905 7.92213 2.74428L7.73333 2.93308ZM2.93333 7.73308V7.99974H3.04373L3.12213 7.92188L2.93333 7.73308ZM0.266667 7.73308H0C0 7.8038 0.0280952 7.87163 0.0781049 7.92164C0.128115 7.97165 0.195942 7.99974 0.266667 7.99974V7.73308ZM0.455467 5.25521L5.25547 0.455211L4.87787 0.0776109L0.0778667 4.87761L0.455467 5.25521ZM4.87787 0.455211L7.54453 3.12188L7.92213 2.74428L5.25547 0.0776109L4.87787 0.455211ZM7.54453 2.74428L2.74453 7.54428L3.12213 7.92188L7.92213 3.12188L7.54453 2.74428ZM2.93333 7.46641H0.266667V7.99974H2.93333V7.46641ZM0.533333 7.73308V5.06641H0V7.73308H0.533333ZM3.27787 2.05521L5.94453 4.72188L6.32213 4.34428L3.65547 1.67761L3.27787 2.05521ZM4.26667 7.99974H8V7.46641H4.26667V7.99974Z" fill="black"/>
</g>
<defs>
<clipPath id="clip0_7_1073">
<rect width="8" height="8" fill="white"/>
</clipPath>
</defs>
</svg>
