<svg width="13" height="3" viewBox="0 0 13 3" fill="none" xmlns="http://www.w3.org/2000/svg">
<path d="M2 1.5C2 1.63261 1.94732 1.75979 1.85355 1.85355C1.75979 1.94732 1.63261 2 1.5 2C1.36739 2 1.24021 1.94732 1.14645 1.85355C1.05268 1.75979 1 1.63261 1 1.5C1 1.36739 1.05268 1.24021 1.14645 1.14645C1.24021 1.05268 1.36739 1 1.5 1C1.63261 1 1.75979 1.05268 1.85355 1.14645C1.94732 1.24021 2 1.36739 2 1.5V1.5ZM7 1.5C7 1.63261 6.94732 1.75979 6.85355 1.85355C6.75979 1.94732 6.63261 2 6.5 2C6.36739 2 6.24021 1.94732 6.14645 1.85355C6.05268 1.75979 6 1.63261 6 1.5C6 1.36739 6.05268 1.24021 6.14645 1.14645C6.24021 1.05268 6.36739 1 6.5 1C6.63261 1 6.75979 1.05268 6.85355 1.14645C6.94732 1.24021 7 1.36739 7 1.5V1.5ZM12 1.5C12 1.63261 11.9473 1.75979 11.8536 1.85355C11.7598 1.94732 11.6326 2 11.5 2C11.3674 2 11.2402 1.94732 11.1464 1.85355C11.0527 1.75979 11 1.63261 11 1.5C11 1.36739 11.0527 1.24021 11.1464 1.14645C11.2402 1.05268 11.3674 1 11.5 1C11.6326 1 11.7598 1.05268 11.8536 1.14645C11.9473 1.24021 12 1.36739 12 1.5V1.5Z" stroke="#5E5EDE"/>
</svg>
