<svg width="18" height="18" viewBox="0 0 18 18" fill="none" xmlns="http://www.w3.org/2000/svg">
<path d="M1.59167 17.75C1.24167 17.75 0.930555 17.6139 0.658333 17.3417C0.386111 17.0694 0.25 16.7583 0.25 16.4083C0.25 16.0389 0.386111 15.7229 0.658333 15.4604C0.930555 15.1979 1.24167 15.0667 1.59167 15.0667C1.96111 15.0667 2.27708 15.1979 2.53958 15.4604C2.80208 15.7229 2.93333 16.0389 2.93333 16.4083C2.93333 16.7583 2.80208 17.0694 2.53958 17.3417C2.27708 17.6139 1.96111 17.75 1.59167 17.75ZM9 17.75C8.65 17.75 8.33889 17.6139 8.06667 17.3417C7.79444 17.0694 7.65833 16.7583 7.65833 16.4083C7.65833 16.0389 7.79444 15.7229 8.06667 15.4604C8.33889 15.1979 8.65 15.0667 9 15.0667C9.36944 15.0667 9.68542 15.1979 9.94792 15.4604C10.2104 15.7229 10.3417 16.0389 10.3417 16.4083C10.3417 16.7583 10.2104 17.0694 9.94792 17.3417C9.68542 17.6139 9.36944 17.75 9 17.75ZM16.4083 17.75C16.0583 17.75 15.7472 17.6139 15.475 17.3417C15.2028 17.0694 15.0667 16.7583 15.0667 16.4083C15.0667 16.0389 15.2028 15.7229 15.475 15.4604C15.7472 15.1979 16.0583 15.0667 16.4083 15.0667C16.7778 15.0667 17.0938 15.1979 17.3563 15.4604C17.6187 15.7229 17.75 16.0389 17.75 16.4083C17.75 16.7583 17.6187 17.0694 17.3563 17.3417C17.0938 17.6139 16.7778 17.75 16.4083 17.75ZM1.59167 10.3417C1.24167 10.3417 0.930555 10.2056 0.658333 9.93333C0.386111 9.66111 0.25 9.35 0.25 9C0.25 8.63056 0.386111 8.31458 0.658333 8.05208C0.930555 7.78958 1.24167 7.65833 1.59167 7.65833C1.96111 7.65833 2.27708 7.78958 2.53958 8.05208C2.80208 8.31458 2.93333 8.63056 2.93333 9C2.93333 9.35 2.80208 9.66111 2.53958 9.93333C2.27708 10.2056 1.96111 10.3417 1.59167 10.3417ZM9 10.3417C8.65 10.3417 8.33889 10.2056 8.06667 9.93333C7.79444 9.66111 7.65833 9.35 7.65833 9C7.65833 8.63056 7.79444 8.31458 8.06667 8.05208C8.33889 7.78958 8.65 7.65833 9 7.65833C9.36944 7.65833 9.68542 7.78958 9.94792 8.05208C10.2104 8.31458 10.3417 8.63056 10.3417 9C10.3417 9.35 10.2104 9.66111 9.94792 9.93333C9.68542 10.2056 9.36944 10.3417 9 10.3417ZM16.4083 10.3417C16.0583 10.3417 15.7472 10.2056 15.475 9.93333C15.2028 9.66111 15.0667 9.35 15.0667 9C15.0667 8.63056 15.2028 8.31458 15.475 8.05208C15.7472 7.78958 16.0583 7.65833 16.4083 7.65833C16.7778 7.65833 17.0938 7.78958 17.3563 8.05208C17.6187 8.31458 17.75 8.63056 17.75 9C17.75 9.35 17.6187 9.66111 17.3563 9.93333C17.0938 10.2056 16.7778 10.3417 16.4083 10.3417ZM1.59167 2.93333C1.24167 2.93333 0.930555 2.79722 0.658333 2.525C0.386111 2.25278 0.25 1.94167 0.25 1.59167C0.25 1.22222 0.386111 0.90625 0.658333 0.64375C0.930555 0.38125 1.24167 0.25 1.59167 0.25C1.96111 0.25 2.27708 0.38125 2.53958 0.64375C2.80208 0.90625 2.93333 1.22222 2.93333 1.59167C2.93333 1.94167 2.80208 2.25278 2.53958 2.525C2.27708 2.79722 1.96111 2.93333 1.59167 2.93333ZM9 2.93333C8.65 2.93333 8.33889 2.79722 8.06667 2.525C7.79444 2.25278 7.65833 1.94167 7.65833 1.59167C7.65833 1.22222 7.79444 0.90625 8.06667 0.64375C8.33889 0.38125 8.65 0.25 9 0.25C9.36944 0.25 9.68542 0.38125 9.94792 0.64375C10.2104 0.90625 10.3417 1.22222 10.3417 1.59167C10.3417 1.94167 10.2104 2.25278 9.94792 2.525C9.68542 2.79722 9.36944 2.93333 9 2.93333ZM16.4083 2.93333C16.0583 2.93333 15.7472 2.79722 15.475 2.525C15.2028 2.25278 15.0667 1.94167 15.0667 1.59167C15.0667 1.22222 15.2028 0.90625 15.475 0.64375C15.7472 0.38125 16.0583 0.25 16.4083 0.25C16.7778 0.25 17.0938 0.38125 17.3563 0.64375C17.6187 0.90625 17.75 1.22222 17.75 1.59167C17.75 1.94167 17.6187 2.25278 17.3563 2.525C17.0938 2.79722 16.7778 2.93333 16.4083 2.93333Z" fill="#5E5EDD"/>
</svg>
