<svg width="15" height="16" viewBox="0 0 15 16" fill="none" xmlns="http://www.w3.org/2000/svg">
<path d="M4.33333 2.66634H2.33333C1.59695 2.66634 1 3.26329 1 3.99967V5.99967M4.33333 2.66634H9.66667M4.33333 2.66634V1.33301M4.33333 2.66634V3.99967M1 5.99967H13V3.99967C13 3.26329 12.4031 2.66634 11.6667 2.66634H9.66667M1 5.99967V13.333C1 14.0694 1.59695 14.6663 2.33333 14.6663H5.66667M9.66667 2.66634V1.33301M9.66667 2.66634V3.99967M10.3333 10.1663V11.333L11.1667 12.1663M13.6667 11.333C13.6667 13.1739 12.1743 14.6663 10.3333 14.6663C8.4924 14.6663 7 13.1739 7 11.333C7 9.49207 8.4924 7.99967 10.3333 7.99967C12.1743 7.99967 13.6667 9.49207 13.6667 11.333Z" stroke="#484848" stroke-linecap="round" stroke-linejoin="round"/>
</svg>
