<svg width="16" height="16" viewBox="0 0 16 16" fill="none" xmlns="http://www.w3.org/2000/svg">
<path d="M5.99967 7.33333C7.47243 7.33333 8.66634 6.13943 8.66634 4.66667C8.66634 3.19391 7.47243 2 5.99967 2C4.52692 2 3.33301 3.19391 3.33301 4.66667C3.33301 6.13943 4.52692 7.33333 5.99967 7.33333Z" stroke="#484848" stroke-linecap="round" stroke-linejoin="round"/>
<path d="M1.33301 14V11.3333C1.33301 10.5969 1.92996 10 2.66634 10H9.33301C10.0694 10 10.6663 10.5969 10.6663 11.3333V14" stroke="#484848" stroke-linecap="round" stroke-linejoin="round"/>
<path d="M10.667 2C11.2406 2.14687 11.749 2.48047 12.1121 2.94821C12.4751 3.41595 12.6722 3.99122 12.6722 4.58333C12.6722 5.17545 12.4751 5.75072 12.1121 6.21846C11.749 6.6862 11.2406 7.0198 10.667 7.16667" stroke="#484848" stroke-linecap="round" stroke-linejoin="round"/>
<path d="M12.667 10H13.3337C14.0701 10 14.667 10.5969 14.667 11.3333V14" stroke="#484848" stroke-linecap="round" stroke-linejoin="round"/>
</svg>
